<?xml version="1.0" encoding="UTF-8" standalone="no"?>
<!-- Created with Inkscape (http://www.inkscape.org/) -->

<svg
   version="1.1"
   id="svg1"
   width="168"
   height="300"
   viewBox="0 0 168 300"
   sodipodi:docname="download-removebg-preview.svg"
   inkscape:version="1.4 (86a8ad7, 2024-10-11)"
   xmlns:inkscape="http://www.inkscape.org/namespaces/inkscape"
   xmlns:sodipodi="http://sodipodi.sourceforge.net/DTD/sodipodi-0.dtd"
   xmlns="http://www.w3.org/2000/svg"
   xmlns:svg="http://www.w3.org/2000/svg">
  <defs
     id="defs1" />
  <sodipodi:namedview
     id="namedview1"
     pagecolor="#ffffff"
     bordercolor="#fff"
     borderopacity="0.25"
     inkscape:showpageshadow="2"
     inkscape:pageopacity="0.0"
     inkscape:pagecheckerboard="0"
     inkscape:deskcolor="#d1d1d1"
     inkscape:zoom="0.32585838"
     inkscape:cx="3.0688179"
     inkscape:cy="204.07639"
     inkscape:window-width="1141"
     inkscape:window-height="755"
     inkscape:window-x="86"
     inkscape:window-y="-17"
     inkscape:window-maximized="0"
     inkscape:current-layer="g1" />
  <g
     inkscape:groupmode="layer"
     inkscape:label="Image"
     id="g1">
    <path
       style="fill:#fff"
       d="m 72.938626,239.64939 c -0.32668,-3.9875 -1.11251,-14.9 -1.74629,-24.25 -1.37528,-20.28921 -1.40173,-20.33469 -7.1629,-12.31549 -19.11975,26.61355 -37.27469,21.79866 -42.17212,-11.18451 -6.95997,-46.87396 23.99618,-112.532853 37.001,-78.4802 l 1.77216,4.64033 3.58356,-0.80424 c 27.33564,-6.13486 32.21893,25.68202 10.5468,68.71713 l -3.66349,7.27472 2.13916,25.34605 c 1.17654,13.94033 2.39474,26.01209 2.70712,26.82613 0.34479,0.89853 -0.0173,1.48007 -0.92155,1.48007 -1.12775,0 -1.63375,-1.76077 -2.08345,-7.24999 z m -22.81558,-24.4455 c 4.90783,-3.03428 13.90907,-13.26409 17.27037,-19.6276 l 2.01943,-3.82311 -2.08689,-22.28458 c -2.21614,-23.66492 -3.04342,-29.7503 -5.61807,-41.32594 l -1.61404,-7.25672 -4.01605,2.25672 c -10.2834,5.77852 -32.08389,35.78658 -30.08635,41.41344 0.22585,0.63619 -0.52398,1.81133 -1.66628,2.61143 l -2.0769,1.45472 0.47778,11.88857 c 1.26261,31.41768 11.57432,44.47548 27.397,34.69307 z m 26.23446,-35.69401 c 5.33611,-11.39085 8.7415,-22.39215 10.10771,-32.65354 l 1.17166,-8.80019 -1.7348,-6.40888 c -3.14625,-11.62317 -10.98269,-16.30081 -21.28945,-12.70785 l -2.98343,1.04003 2.26026,10.94742 c 2.27344,11.01127 3.43041,20.30677 5.56189,44.68605 1.32112,15.11068 1.58363,15.2588 6.90616,3.89696 z m -41.54519,-36.11049 c 6.95331,-10.88558 11.98545,-15.87472 24.31885,-24.11103 0.70842,-0.47309 -4.03959,-9.97938 -6.05672,-12.12651 -4.55501,-4.84859 -10.32626,-0.6152 -17.13604,12.56979 -6.63791,12.85222 -9.52159,22.35413 -12.19026,40.16775 l -0.52433,3.5 3.87796,-7 c 2.13287,-3.85 5.60262,-9.7 7.71054,-13 z m 87.485294,52.02924 c 0,-0.25892 1.43405,-2.50528 3.18679,-4.9919 4.22977,-6.00082 8.93417,-7.64453 7.31959,-2.55746 -0.9269,2.92042 -10.50638,9.80375 -10.50638,7.54936 z m -38.597364,-7.27924 c 2.99105,-3.95282 11.37046,-16.72031 23.134884,-35.25 1.83666,-2.89285 14.32511,-23.58753 17.97317,-29.78344 0.55588,-0.94411 2.69346,-4.31292 4.75018,-7.48626 2.05672,-3.17333 4.20325,-7.8391 4.77008,-10.36839 1.09876,-4.90289 8.0081,-25.483503 14.88091,-44.325223 2.29978,-6.30482 3.86267,-11.14455 3.47308,-10.75497 -2.11641,2.11641 -19.3757,31.49352 -19.37993,32.98666 -0.012,4.24349 -5.53294,22.065093 -8.63314,27.867933 -0.98839,1.85003 -2.0389,5.83425 -2.33447,8.85383 -0.59283,6.05639 -2.87545,7.88554 -4.74243,3.80028 l -1.04672,-2.29042 -0.741,5.76322 c -0.81329,6.32548 -2.11492,7.99381 -4.10906,5.26666 l -1.2984,-1.77567 -0.52569,2.3729 c -0.28913,1.30509 -0.64908,3.68819 -0.79989,5.29577 -0.3837,4.08996 -2.36242,4.30259 -4.67356,0.50223 l -1.95918,-3.22161 0.53858,6.64465 c 0.69567,8.58283 -0.11866,12.03192 -2.68245,11.36147 -1.482664,-0.38772 -2.168364,0.27776 -3.055314,2.96524 -0.62898,1.90584 -1.77331,3.7068 -2.54295,4.00214 -0.76964,0.29534 -1.39934,1.61383 -1.39934,2.92999 0,4.23501 -1.5477,2.54466 -1.70027,-1.85699 -0.081,-2.3375 -0.44886,-6.10983 -0.8174,-8.38297 -0.4413,-2.72189 -0.2739,-4.37782 0.49033,-4.85013 1.70145,-1.05156 2.20236,-0.14374 2.7881,5.05298 0.73954,6.56111 2.24109,3.44493 2.96737,-6.15821 0.62147,-8.21719 2.21355,-11.05065 2.37155,-4.22069 0.21069,9.10808 1.700584,9.37016 1.756734,0.30902 0.0533,-8.59901 -0.28472,-12.34527 -2.833004,-31.40002 -0.74488,-5.56976 -0.78825,-8.73514 -0.12875,-9.39464 1.28589,-1.2859 1.73652,0.8654 3.203704,15.29466 0.64313,6.325 2.09276,13.975 3.22139,17 l 2.05207,5.5 0.71441,-2.5 c 0.39292,-1.375 0.75927,-4.83594 0.81409,-7.69098 0.11772,-6.1302 1.70335,-7.74437 3.24979,-3.30826 1.43272,4.10992 2.27252,2.95021 3.68301,-5.08603 1.7083,-9.73303 7.01224,-17.51341 7.19729,-10.55774 0.0801,3.01162 6.55554,-14.564163 8.42117,-22.856993 l 0.67491,-3 -5.09869,5.31071 -5.09869,5.31072 -3.14864,-0.31071 c -7.94814,-0.78435 -3.69803,-29.7503 5.75173,-39.20007 2.48736,-2.48735 4.0855,-1.90372 1.75069,0.63935 -9.0214,9.82612 -14.28807,37.75 -7.11995,37.75 2.17749,0 7.15689,-4.85147 10.94163,-10.6605 l 4.08502,-6.26993 -0.3448,-10.11677 -0.34479,-10.11678 -1.94113,-1.41801 c -1.54655,-1.12977 -1.62226,-1.41801 -0.37244,-1.41801 3.17431,0 4.67691,4.1569 4.97024,13.75 0.20223,6.61365 -0.59183,7.34647 8.12683,-7.5 14.96968,-25.49096 15.72776,-21.90144 2.69273,12.75 -4.83745,12.85955 -6.98257,19.19789 -7.50952,22.18893 -0.26241,1.48954 -0.93737,3.918803 -1.49989,5.398353 -1.71275,4.50486 -0.59732,3.62858 3.98773,-3.132733 2.40775,-3.55059 4.58268,-6.25066 4.83317,-6.00016 0.2505,0.2505 -1.99032,4.18823 -4.9796,8.750533 -7.08665,10.8158 -6.94107,10.55601 -7.34252,13.10221 -0.19015,1.20608 -0.89682,5.12945 -1.57036,8.7186 -3.43741,18.31703 2.90018,15.67808 18.95691,-7.8936 4.59368,-6.74364 8.59704,-12.01628 8.89634,-11.71697 1.32003,1.32003 -20.00053,30.1467 -23.71912,32.06965 l -2.76432,1.42949 -1.79206,-1.31039 -1.79206,-1.31039 0.61247,-7.94232 c 0.33686,-4.36827 0.91414,-8.82181 1.28285,-9.89676 0.3687,-1.07494 -3.49414,4.57056 -8.5841,12.54556 -8.1431,12.75868 -11.51965,18.26164 -20.24841,33 -6.693064,11.30113 -20.394444,31 -21.561774,31 -0.85312,0 -0.0117,-1.79986 2.22067,-4.75 z m 36.597364,-68.45 c 0,-2.06109 -0.34425,-2.85575 -0.96725,-2.23275 -0.53198,0.53198 -0.7045,1.97198 -0.38337,3.2 0.82366,3.14965 1.35062,2.77227 1.35062,-0.96725 z m 0,-6.3 c 0,-0.275 -0.225,-0.5 -0.5,-0.5 -0.275,0 -0.5,0.225 -0.5,0.5 0,0.275 0.225,0.5 0.5,0.5 0.275,0 0.5,-0.225 0.5,-0.5 z m 27.69385,-24.139483 c -0.79893,-0.79893 0.10419,-2.36052 1.36517,-2.36052 0.51754,0 0.94098,0.675 0.94098,1.5 0,1.54641 -1.17996,1.9867 -2.30615,0.86052 z m 2.30615,-5.36052 c 0,-0.55 0.45,-1 1,-1 0.55,0 1,0.45 1,1 0,0.55 -0.45,1 -1,1 -0.55,0 -1,-0.45 -1,-1 z m 2,-4 c 0,-0.55 0.70156,-1 1.55902,-1 0.85746,0 1.2809,0.45 0.94098,1 -0.33992,0.55 -1.04148,1 -1.55902,1 -0.51754,0 -0.94098,-0.45 -0.94098,-1 z"
       id="path3" />
  </g>
</svg>
